<?xml version="1.0" encoding="utf-8"?>
<!-- Generator: Adobe Illustrator 15.0.0, SVG Export Plug-In . SVG Version: 6.00 Build 0)  -->
<!DOCTYPE svg PUBLIC "-//W3C//DTD SVG 1.1//EN" "http://www.w3.org/Graphics/SVG/1.1/DTD/svg11.dtd">
<svg version="1.1" id="Layer_1" xmlns="http://www.w3.org/2000/svg" xmlns:xlink="http://www.w3.org/1999/xlink" x="0px" y="0px"
	 width="18px" height="28px" viewBox="0 0 18 28" enable-background="new 0 0 18 28" xml:space="preserve">
<g>
	<path opacity="0.75" fill="#EEE8D5" d="M17.487,0H0.51C0.229,0,0,0.307,0,0.692c0,0.377,0.229,0.686,0.51,0.686h16.978
		C17.77,1.378,18,1.069,18,0.692C18,0.305,17.775,0,17.487,0z"/>
	<path opacity="0.75" fill="#EEE8D5" d="M17.487,3.359H0.51C0.229,3.359,0,3.666,0,4.05c0,0.378,0.229,0.687,0.51,0.687h16.978
		C17.775,4.737,18,4.438,18,4.05C18,3.666,17.77,3.359,17.487,3.359z"/>
	<path opacity="0.75" fill="#EEE8D5" d="M17.487,6.717H0.51C0.229,6.717,0,7.029,0,7.41C0,7.791,0.229,8.1,0.51,8.1h16.978
		C17.77,8.1,18,7.791,18,7.41C18,7.029,17.77,6.717,17.487,6.717z"/>
	<path opacity="0.75" fill="#EEE8D5" d="M10.487,10.604l-0.047-0.117H7.578L0.6,27.752L0.5,28h3.01l1.937-5.17h7.252L14.684,28
		h2.815L10.487,10.604z M11.809,20.551H6.33l2.718-7.36L11.809,20.551z"/>
</g>
</svg>
