<?xml version="1.0" encoding="utf-8"?>
<!-- Generator: Adobe Illustrator 15.0.0, SVG Export Plug-In . SVG Version: 6.00 Build 0)  -->
<!DOCTYPE svg PUBLIC "-//W3C//DTD SVG 1.1//EN" "http://www.w3.org/Graphics/SVG/1.1/DTD/svg11.dtd">
<svg version="1.1" xmlns="http://www.w3.org/2000/svg" xmlns:xlink="http://www.w3.org/1999/xlink" x="0px" y="0px" width="137px"
	 height="37px" viewBox="-8.5 1.5 137 37" enable-background="new -8.5 1.5 137 37" xml:space="preserve">
<g id="Layer_1" display="none">
	<g display="inline">
		<rect x="32.128" y="1.451" fill="none" width="30.478" height="37.098"/>
		<rect x="118.843" y="1.451" fill="none" width="9.619" height="37.098"/>
		<rect x="63.354" y="1.451" fill="none" width="54.79" height="37.098"/>
		<rect x="-8.465" y="1.451" fill="none" width="39.845" height="37.098"/>
		<path fill="#334251" d="M-10,0v40h140V0H-10z M129.5,39.5h-139v-39h139V39.5z"/>
		<path fill="#EEE8D5" d="M-9.5,39.5h139v-39h-139V39.5z M128.462,1.451v37.098h-9.619V1.451H128.462z M118.144,1.451v37.098h-54.79
			V1.451H118.144z M62.605,1.451v37.098H32.128V1.451H62.605z M-8.465,1.451H31.38v37.098H-8.465V1.451z"/>
	</g>
</g>
<g id="Layer_3">
</g>
<g id="Layer_4">
	<rect x="-8.5" y="1.5" opacity="0.8" fill="#737B83" width="137" height="37"/>
</g>
<g id="Layer_2" display="none">
	<g display="inline">
		<g opacity="0.75">
			<path fill="#EEE8D5" d="M3.206,29.398h-3.957c-0.544,0-0.99-0.537-0.99-1.205V12.6c0-0.66,0.446-1.201,0.99-1.201h3.957
				c0.55,0,0.985,0.541,0.985,1.201v15.594C4.191,28.861,3.756,29.398,3.206,29.398z M0.239,26.994h1.979V13.805H0.239V26.994z"/>
			<path fill="#EEE8D5" d="M11.118,29.398H7.16c-0.539,0-0.985-0.537-0.985-1.205V12.6c0-0.66,0.446-1.201,0.985-1.201h3.958
				c0.549,0,0.988,0.541,0.988,1.201v15.594C12.106,28.861,11.667,29.398,11.118,29.398z M8.155,26.994h1.98V13.805h-1.98V26.994z"
				/>
			<path fill="#EEE8D5" d="M15.356,29.398c-0.549,0-0.994-0.537-0.994-1.205V12.6c0-0.66,0.445-1.201,0.994-1.201
				c0.539,0,0.984,0.541,0.984,1.201v15.594C16.341,28.861,15.896,29.398,15.356,29.398z"/>
			<path fill="#EEE8D5" d="M19.31,29.398c-0.549,0-0.984-0.537-0.984-1.205V12.6c0-0.66,0.436-1.201,0.984-1.201
				c0.551,0,0.99,0.541,0.99,1.201v15.594C20.3,28.861,19.86,29.398,19.31,29.398z"/>
			<path fill="#EEE8D5" d="M23.275,29.398c-0.551,0-0.997-0.537-0.997-1.205V12.6c0-0.66,0.446-1.201,0.997-1.201
				c0.536,0,0.983,0.541,0.983,1.201v15.594C24.259,28.861,23.812,29.398,23.275,29.398z"/>
		</g>
		<g>
			<g opacity="0.75">
				<path fill="#EEE8D5" d="M56.193,6.259H39.215c-0.281,0-0.51,0.311-0.51,0.699c0,0.381,0.229,0.692,0.51,0.692h16.979
					c0.281,0,0.512-0.312,0.512-0.692C56.705,6.566,56.48,6.259,56.193,6.259z"/>
				<path fill="#EEE8D5" d="M56.193,9.65H39.215c-0.281,0-0.51,0.31-0.51,0.698c0,0.382,0.229,0.693,0.51,0.693h16.979
					c0.287,0,0.512-0.302,0.512-0.693C56.705,9.96,56.475,9.65,56.193,9.65z"/>
				<path fill="#EEE8D5" d="M56.193,13.042H39.215c-0.281,0-0.51,0.314-0.51,0.699s0.229,0.697,0.51,0.697h16.979
					c0.281,0,0.512-0.312,0.512-0.697S56.475,13.042,56.193,13.042z"/>
			</g>
			<path opacity="0.75" fill="#EEE8D5" d="M49.193,16.966l-0.047-0.118h-2.863l-6.979,17.434l-0.1,0.251h3.01l1.938-5.221h7.252
				l1.984,5.221h2.816L49.193,16.966z M50.514,27.011h-5.479l2.719-7.433L50.514,27.011z"/>
		</g>
		<g opacity="0.65">
			<polygon fill="#FEF6E2" points="73.637,35.089 73.956,34.769 73.637,34.449 68.107,34.449 67.787,34.769 68.107,35.089 			"/>
			<polygon fill="#FEF6E2" points="67.596,33.938 67.596,28.409 67.276,28.091 66.956,28.409 66.956,33.938 67.276,34.258 			"/>
		</g>
		<g>
			<g>
				<path fill="#334251" d="M-10,0v40h140V0H-10z M129.5,39.5h-139v-39h139V39.5z"/>
				<path fill="#EEE8D5" d="M-9.5,39.5h139v-39h-139V39.5z M128.462,1.451v37.098h-9.619V1.451H128.462z M118.144,1.451v37.098
					h-54.79V1.451H118.144z M62.605,1.451v37.098H32.128V1.451H62.605z M-8.465,1.451H31.38v37.098H-8.465V1.451z"/>
			</g>
		</g>
		<g opacity="0.75">
			<path fill="#EEE8D5" d="M76.798,16.203h-7.033c-0.136,0.008-0.219,0.095-0.219,0.23v0.613c0,0.135,0.083,0.222,0.223,0.229h2.797
				v7.539c0,0.139,0.086,0.225,0.223,0.225h0.868c0.137,0,0.224-0.086,0.224-0.225v-7.539h2.921c0.136-0.007,0.22-0.094,0.22-0.229
				v-0.613C77.021,16.291,76.934,16.203,76.798,16.203z"/>
			<path fill="#EEE8D5" d="M84.153,22.479c-0.143-0.226-0.256-0.396-0.341-0.503c-0.087-0.114-0.225-0.243-0.418-0.395
				c-0.094-0.075-0.197-0.14-0.303-0.192c0.626-0.15,1.134-0.42,1.508-0.797c0.45-0.456,0.675-1.006,0.675-1.631
				c0-0.867-0.294-1.553-0.878-2.036c-0.577-0.479-1.394-0.722-2.423-0.722h-3.46c-0.137,0.008-0.22,0.095-0.22,0.23v8.381
				c0,0.139,0.086,0.225,0.226,0.225h0.866c0.138,0,0.222-0.086,0.222-0.225v-3.104h1.439c0.728,0,1.263,0.289,1.639,0.878
				l1.482,2.284c0.076,0.11,0.166,0.166,0.264,0.166h1.013c0.204,0,0.234-0.098,0.234-0.154c0-0.055-0.015-0.105-0.049-0.157
				L84.153,22.479z M83.963,18.957c0,0.549-0.174,0.955-0.534,1.247c-0.359,0.293-0.851,0.44-1.455,0.44h-2.366v-3.369h2.366
				c0.601,0,1.093,0.148,1.453,0.438C83.789,18.002,83.963,18.408,83.963,18.957z"/>
			<path fill="#EEE8D5" d="M91.173,16.644c-0.111-0.288-0.338-0.44-0.65-0.44h-0.376c-0.306,0.004-0.528,0.156-0.646,0.439
				l-3.265,8.127c-0.008,0.016-0.028,0.063-0.02,0.115c0.006,0.045,0.036,0.154,0.215,0.154h0.884c0.121,0,0.222-0.062,0.283-0.186
				l0.831-2.035h3.812l0.84,2.045c0.078,0.145,0.192,0.176,0.277,0.176h0.883c0.207,0,0.225-0.132,0.225-0.17
				c0-0.03-0.01-0.061-0.026-0.092L91.173,16.644z M91.851,21.75h-3.024l1.512-3.748L91.851,21.75z"/>
			<path fill="#EEE8D5" d="M96.943,16.203h-0.868c-0.135,0-0.223,0.088-0.223,0.23v8.381c0,0.139,0.088,0.225,0.223,0.225h0.868
				c0.139,0,0.223-0.086,0.223-0.225v-8.381C97.166,16.291,97.082,16.203,96.943,16.203z"/>
			<path fill="#EEE8D5" d="M105.493,23.971h-4.753v-7.537c0-0.143-0.085-0.23-0.223-0.23H99.65c-0.138,0-0.222,0.088-0.222,0.23
				v8.381c0,0.139,0.084,0.225,0.222,0.225h5.843c0.143,0,0.229-0.086,0.229-0.225v-0.619
				C105.722,24.058,105.636,23.971,105.493,23.971z"/>
			<path fill="#EEE8D5" d="M111.389,20.402l-2.157-0.62c-0.519-0.151-0.898-0.337-1.133-0.554c-0.227-0.211-0.336-0.492-0.336-0.861
				c0-0.363,0.173-0.658,0.523-0.903c0.359-0.247,0.876-0.376,1.534-0.376c1.259,0,2.031,0.48,2.363,1.471
				c0.057,0.172,0.179,0.198,0.247,0.198h0.777c0.081,0,0.146-0.024,0.184-0.074c0.042-0.049,0.058-0.114,0.042-0.2
				c-0.159-0.763-0.559-1.369-1.187-1.806c-0.624-0.435-1.448-0.654-2.451-0.654c-1.005,0-1.82,0.229-2.422,0.673
				c-0.611,0.453-0.924,1.05-0.924,1.771c0,1.165,0.728,1.968,2.167,2.379l2.16,0.615c0.509,0.142,0.882,0.331,1.117,0.554
				c0.228,0.223,0.338,0.507,0.338,0.869c0,0.356-0.18,0.648-0.542,0.894c-0.372,0.249-0.921,0.375-1.634,0.375
				c-1.379,0-2.207-0.479-2.54-1.471c-0.058-0.165-0.181-0.188-0.247-0.188h-0.776c-0.169,0-0.229,0.109-0.229,0.211
				c0,0.357,0.123,0.711,0.371,1.049c0.24,0.332,0.526,0.608,0.849,0.822c0.638,0.432,1.504,0.65,2.573,0.65
				c1.068,0,1.922-0.226,2.54-0.666c0.63-0.449,0.949-1.049,0.949-1.777C113.546,21.608,112.821,20.805,111.389,20.402z"/>
		</g>
	</g>
</g>
</svg>
