<?xml version="1.0" encoding="utf-8"?>
<!-- Generator: Adobe Illustrator 15.0.0, SVG Export Plug-In . SVG Version: 6.00 Build 0)  -->
<!DOCTYPE svg PUBLIC "-//W3C//DTD SVG 1.1//EN" "http://www.w3.org/Graphics/SVG/1.1/DTD/svg11.dtd">
<svg version="1.1" xmlns="http://www.w3.org/2000/svg" xmlns:xlink="http://www.w3.org/1999/xlink" x="0px" y="0px" width="40px"
	 height="40px" viewBox="5 5 40 40" enable-background="new 5 5 40 40" xml:space="preserve">
<g id="Layer_1" display="none">
	<g display="inline">
		<path fill="#999999" d="M25,44.973c-11.026,0-20-8.968-20-20c0-11.026,8.974-20,20-20c11.033,0,20,8.974,20,20
			C45,36.005,36.033,44.973,25,44.973z M25,6.876c-9.977,0-18.097,8.119-18.097,18.096c0,9.983,8.12,18.098,18.097,18.098
			c9.979,0,18.099-8.115,18.099-18.098C43.099,14.995,34.979,6.876,25,6.876z"/>
		<g>
			<polyline fill="#999999" points="25.125,25.998 28.54,29.408 24.56,33.393 16.6,33.393 16.6,25.431 20.578,21.449 23.997,24.865
				25.125,24.865 			"/>
			<polyline fill="#999999" points="25.998,25.119 29.422,28.542 33.4,24.552 33.4,16.595 25.438,16.595 21.456,20.578
				24.875,23.992 24.875,25.119 			"/>
		</g>
	</g>
</g>
<g id="Layer_2">
	<g>
		<path fill="#999999" d="M25,44.999C13.972,44.999,5,36.028,5,25S13.972,5,25,5s20,8.972,20,20S36.028,44.999,25,44.999z M25,6.904
			c-9.979,0-18.096,8.118-18.096,18.095c0,9.979,8.117,18.096,18.096,18.096s18.096-8.117,18.096-18.096
			C43.096,15.021,34.979,6.904,25,6.904z"/>
		<g>
			<polyline fill="#999999" points="17.68,33.401 20.898,36.622 24.646,32.87 24.646,25.371 17.146,25.371 13.4,29.12
				16.618,32.341 16.618,33.401 			"/>
			<polyline fill="#999999" points="33.381,17.702 36.6,20.921 32.849,24.672 25.349,24.672 25.349,17.172 29.1,13.421
				32.318,16.641 33.381,16.641 			"/>
		</g>
	</g>
</g>
</svg>
