<?xml version="1.0" encoding="utf-8"?>
<!-- Generator: Adobe Illustrator 15.0.0, SVG Export Plug-In . SVG Version: 6.00 Build 0)  -->
<!DOCTYPE svg PUBLIC "-//W3C//DTD SVG 1.1//EN" "http://www.w3.org/Graphics/SVG/1.1/DTD/svg11.dtd">
<svg version="1.1" id="Layer_1" xmlns="http://www.w3.org/2000/svg" xmlns:xlink="http://www.w3.org/1999/xlink" x="0px" y="0px"
	 width="40px" height="40px" viewBox="5 5 40 40" enable-background="new 5 5 40 40" xml:space="preserve">
<g id="fscreen-svg">
	<path fill="#729dad" d="M25,44.973c-11.026,0-20-8.968-20-20c0-11.026,8.974-20,20-20c11.033,0,20,8.974,20,20
		C45,36.005,36.033,44.973,25,44.973z M25,6.876c-9.977,0-18.097,8.119-18.097,18.096c0,9.983,8.12,18.098,18.097,18.098
		c9.979,0,18.099-8.115,18.099-18.098C43.099,14.995,34.979,6.876,25,6.876z"/>
	<g>
		<polyline fill="#729dad" points="25.125,25.998 28.54,29.408 24.56,33.393 16.6,33.393 16.6,25.431 20.578,21.449 23.997,24.865
			25.125,24.865 		"/>
		<polyline fill="#729dad" points="25.998,25.119 29.422,28.542 33.4,24.552 33.4,16.595 25.438,16.595 21.456,20.578
			24.875,23.992 24.875,25.119 		"/>
	</g>
</g>
</svg>
