<?xml version="1.0" encoding="utf-8"?>
<!-- Generator: Adobe Illustrator 15.0.0, SVG Export Plug-In . SVG Version: 6.00 Build 0)  -->
<!DOCTYPE svg PUBLIC "-//W3C//DTD SVG 1.1//EN" "http://www.w3.org/Graphics/SVG/1.1/DTD/svg11.dtd">
<svg version="1.1" id="Layer_1" xmlns="http://www.w3.org/2000/svg" xmlns:xlink="http://www.w3.org/1999/xlink" x="0px" y="0px"
	 width="40px" height="40px" viewBox="0 0 40 40" enable-background="new 0 0 40 40" xml:space="preserve">
<g id="Layer_1_1_">
</g>
<g>
	<g opacity="0.73">
		<path opacity="0.92" fill="#455A64" d="M32,28.457C32,30.41,30.4,32,28.428,32H11.561C9.6,32,8,30.41,8,28.457V11.548
			c0-1.957,1.6-3.547,3.561-3.547h16.867C30.4,8.001,32,9.591,32,11.548V28.457z"/>
		<path opacity="0.43" fill="#455A64" d="M28.428,8H11.561C9.6,8,8,9.59,8,11.548v16.909C8,30.41,9.6,32,11.561,32h16.867
			C30.4,32,32,30.41,32,28.457V11.548C32,9.59,30.4,8,28.428,8z"/>
	</g>
	<g>
		<g opacity="0.38">
			<g>
				<path fill="#FEF6E2" d="M33.186,39H6.816C3.609,39,1,36.404,1,33.213V6.787C1,3.597,3.609,1,6.816,1h26.367
					C36.393,1,39,3.597,39,6.787v26.426C39,36.404,36.393,39,33.186,39z M6.816,1.999c-2.656,0-4.817,2.148-4.817,4.788v26.426
					C1.999,35.854,4.16,38,6.816,38h26.367c2.656,0,4.817-2.146,4.817-4.787V6.787c0-2.64-2.161-4.788-4.817-4.788H6.816z"/>
			</g>
			<g>
				<path fill="#FEF6E2" d="M33.186,39H6.816C3.609,39,1,36.404,1,33.213V6.787C1,3.597,3.609,1,6.816,1h26.367
					C36.393,1,39,3.597,39,6.787v26.426C39,36.404,36.393,39,33.186,39z M6.816,1.999c-2.656,0-4.817,2.148-4.817,4.788v26.426
					C1.999,35.854,4.16,38,6.816,38h26.367c2.656,0,4.817-2.146,4.817-4.787V6.787c0-2.64-2.161-4.788-4.817-4.788H6.816z"/>
			</g>
		</g>
		<path fill="#334251" d="M33.064,40H6.934C3.111,40,0,36.902,0,33.094V6.905C0,3.098,3.111,0,6.934,0h26.133
			C36.891,0,40,3.098,40,6.905v26.188C40,36.902,36.891,40,33.064,40z M6.934,0.976c-3.285,0-5.957,2.66-5.957,5.93v26.188
			c0,3.271,2.672,5.93,5.957,5.93h26.133c3.285,0,5.959-2.659,5.959-5.93V6.905c0-3.27-2.674-5.93-5.959-5.93L6.934,0.976
			L6.934,0.976z"/>
	</g>
	<g>
		<path opacity="0.75" fill="#EEE8D5" enable-background="new    " d="M36,12.908v-1.027h-2.941v-0.402
			c0-2.616-2.094-4.745-4.678-4.776V4h-1.012v2.697h-4.467V4h-1.019v2.697h-4.479V4h-1.018v2.697h-4.461V4h-1.02v2.765
			c-2.287,0.332-4.061,2.309-4.061,4.714v0.402H4v1.027h2.848v4.533H4v1.025h2.848v4.555H4v1.024h2.848v4.472
			c0,0.024,0.006,0.045,0.006,0.069H4v1.024h2.988c0.441,1.894,1.99,3.339,3.92,3.615V36h1.02v-2.701h4.461V36h1.019v-2.701h4.479
			V36h1.019v-2.701h4.467V36h1.012v-2.709c2.209-0.025,4.051-1.588,4.535-3.678H36v-1.025h-2.947c0-0.025,0.006-0.045,0.006-0.07
			v-4.471H36v-1.025h-2.941v-4.554H36v-1.024h-2.941v-4.534L36,12.908L36,12.908z M31.867,28.518c0,1.967-1.588,3.568-3.545,3.568
			H11.574c-1.947,0-3.535-1.602-3.535-3.568V11.479c0-1.972,1.588-3.573,3.535-3.573h16.748c1.957,0,3.545,1.602,3.545,3.573V28.518
			z"/>
		<path opacity="0.75" fill="#EEE8D5" enable-background="new    " d="M11.527,13.941c-1.029,0-1.873-0.869-1.873-1.936
			c0-1.066,0.844-1.934,1.873-1.934c1.039,0,1.887,0.867,1.887,1.934C13.414,13.072,12.566,13.941,11.527,13.941z M11.527,11.054
			c-0.5,0-0.906,0.427-0.906,0.953c0,0.525,0.406,0.956,0.906,0.956c0.508,0,0.92-0.431,0.92-0.956
			C12.447,11.48,12.035,11.054,11.527,11.054z"/>
		<path opacity="0.75" fill="#EEE8D5" enable-background="new    " d="M27.947,30.377c-1.039,0-1.885-0.869-1.885-1.934
			c0-1.072,0.846-1.943,1.885-1.943c1.031,0,1.873,0.871,1.873,1.943C29.82,29.508,28.979,30.377,27.947,30.377z M27.947,27.48
			c-0.514,0-0.918,0.422-0.918,0.963c0,0.524,0.412,0.953,0.918,0.953c0.5,0,0.906-0.429,0.906-0.953
			C28.854,27.91,28.447,27.48,27.947,27.48z"/>
	</g>
</g>
</svg>
