<?xml version="1.0" encoding="utf-8"?>
<!-- Generator: Adobe Illustrator 15.0.0, SVG Export Plug-In . SVG Version: 6.00 Build 0)  -->
<!DOCTYPE svg PUBLIC "-//W3C//DTD SVG 1.1//EN" "http://www.w3.org/Graphics/SVG/1.1/DTD/svg11.dtd">
<svg version="1.1" id="Layer_88" xmlns="http://www.w3.org/2000/svg" xmlns:xlink="http://www.w3.org/1999/xlink" x="0px" y="0px"
	 width="30px" height="22px" viewBox="0 0 30 22" enable-background="new 0 0 30 22" xml:space="preserve">
<g>
	<path fill="#999999" d="M29.253,0H0.751C0.337,0,0,0.695,0,1.56c0,0.872,0.337,1.569,0.751,1.569h28.502
		C29.663,3.129,30,2.432,30,1.56C30,0.695,29.663,0,29.253,0"/>
	<path fill="#999999" d="M29.253,9.489H0.751C0.337,9.489,0,10.186,0,11.05c0,0.874,0.337,1.568,0.751,1.568h28.502
		c0.41,0,0.747-0.694,0.747-1.568C30,10.186,29.663,9.489,29.253,9.489"/>
	<path fill="#999999" d="M29.253,18.866H0.751c-0.414,0-0.751,0.7-0.751,1.565C0,21.299,0.337,22,0.751,22h28.502
		C29.663,22,30,21.299,30,20.432C30,19.566,29.663,18.866,29.253,18.866"/>
</g>
</svg>
