<?xml version="1.0" encoding="utf-8"?>
<!-- Generator: Adobe Illustrator 15.0.0, SVG Export Plug-In . SVG Version: 6.00 Build 0)  -->
<!DOCTYPE svg PUBLIC "-//W3C//DTD SVG 1.1//EN" "http://www.w3.org/Graphics/SVG/1.1/DTD/svg11.dtd">
<svg version="1.1" xmlns="http://www.w3.org/2000/svg" xmlns:xlink="http://www.w3.org/1999/xlink" x="0px" y="0px" width="30px"
	 height="22px" viewBox="5 4 30 22" enable-background="new 5 4 30 22" xml:space="preserve">
<g id="Layer_88" display="none">
	<g display="inline">
		<path fill="#999999" d="M34.253,4H5.751C5.337,4,5,4.695,5,5.56c0,0.872,0.337,1.569,0.751,1.569h28.502
			C34.663,7.129,35,6.432,35,5.56C35,4.695,34.663,4,34.253,4"/>
		<path fill="#999999" d="M34.253,13.489H5.751C5.337,13.489,5,14.185,5,15.05c0,0.874,0.337,1.568,0.751,1.568h28.502
			c0.41,0,0.747-0.694,0.747-1.568C35,14.185,34.663,13.489,34.253,13.489"/>
		<path fill="#999999" d="M34.253,22.866H5.751C5.337,22.866,5,23.567,5,24.432C5,25.299,5.337,26,5.751,26h28.502
			C34.663,26,35,25.299,35,24.432C35,23.567,34.663,22.866,34.253,22.866"/>
	</g>
</g>
<g id="Layer_2">
	<g>
		<path fill="#729AAE" d="M34.253,4H5.751C5.337,4,5,4.695,5,5.56c0,0.871,0.337,1.569,0.751,1.569h28.502
			C34.663,7.129,35,6.431,35,5.56C35,4.695,34.663,4,34.253,4"/>
		<path fill="#729AAE" d="M34.253,13.489H5.751C5.337,13.489,5,14.185,5,15.05c0,0.874,0.337,1.569,0.751,1.569h28.502
			c0.41,0,0.747-0.695,0.747-1.569C35,14.185,34.663,13.489,34.253,13.489"/>
		<path fill="#729AAE" d="M34.253,22.871H5.751C5.337,22.871,5,23.566,5,24.432C5,25.303,5.337,26,5.751,26h28.502
			C34.663,26,35,25.303,35,24.432C35,23.566,34.663,22.871,34.253,22.871"/>
	</g>
</g>
</svg>
