<?xml version="1.0" encoding="utf-8"?>
<!-- Generator: Adobe Illustrator 15.0.0, SVG Export Plug-In . SVG Version: 6.00 Build 0)  -->
<!DOCTYPE svg PUBLIC "-//W3C//DTD SVG 1.1//EN" "http://www.w3.org/Graphics/SVG/1.1/DTD/svg11.dtd">
<svg version="1.1" id="Layer_1" xmlns="http://www.w3.org/2000/svg" xmlns:xlink="http://www.w3.org/1999/xlink" x="0px" y="0px"
	 width="12px" height="12px" viewBox="0 0 12 12" enable-background="new 0 0 12 12" xml:space="preserve">
<g>
	<g>
		<path fill-rule="evenodd" clip-rule="evenodd" fill="#334251" d="M6.968,11.72l0.031,0.205C6.714,11.97,6.428,11.993,6.137,12
			l-0.003-0.206C6.412,11.79,6.691,11.767,6.968,11.72z"/>
		<path fill-rule="evenodd" clip-rule="evenodd" fill="#334251" d="M11.479,4.095l0.193-0.069c0.094,0.273,0.169,0.552,0.223,0.833
			l-0.199,0.042C11.642,4.628,11.569,4.357,11.479,4.095z"/>
		<path fill-rule="evenodd" clip-rule="evenodd" fill="#334251" d="M10.496,2.338l0.159-0.128c0.181,0.223,0.347,0.459,0.497,0.707
			l-0.176,0.104C10.831,2.784,10.672,2.553,10.496,2.338z"/>
		<path fill-rule="evenodd" clip-rule="evenodd" fill="#334251" d="M8.973,1.024l0.105-0.179c0.246,0.151,0.484,0.316,0.709,0.499
			L9.659,1.502C9.441,1.326,9.213,1.165,8.973,1.024z"/>
		<path fill-rule="evenodd" clip-rule="evenodd" fill="#334251" d="M7.092,0.306l0.037-0.2c0.283,0.058,0.564,0.133,0.836,0.225
			L7.899,0.525C7.635,0.432,7.365,0.361,7.092,0.306z"/>
		<path fill-rule="evenodd" clip-rule="evenodd" fill="#334251" d="M5.076,0.278L5.045,0.075C5.331,0.029,5.619,0.005,5.906,0
			l0.002,0.206C5.632,0.209,5.354,0.233,5.076,0.278z"/>
		<path fill-rule="evenodd" clip-rule="evenodd" fill="#334251" d="M3.174,0.937L3.075,0.759c0.251-0.141,0.512-0.262,0.784-0.367
			l0.072,0.193C3.67,0.683,3.417,0.799,3.174,0.937z"/>
		<path fill-rule="evenodd" clip-rule="evenodd" fill="#334251" d="M1.612,2.207L1.459,2.074C1.647,1.855,1.854,1.653,2.07,1.462
			l0.136,0.153C1.994,1.801,1.797,1.997,1.612,2.207z"/>
		<path fill-rule="evenodd" clip-rule="evenodd" fill="#334251" d="M0.579,3.936L0.39,3.861c0.103-0.271,0.226-0.529,0.365-0.784
			l0.178,0.099C0.799,3.421,0.679,3.674,0.579,3.936z"/>
		<path fill-rule="evenodd" clip-rule="evenodd" fill="#334251" d="M0.201,5.91L0,5.909c0.002-0.29,0.029-0.58,0.073-0.862
			l0.199,0.031C0.229,5.352,0.206,5.632,0.201,5.91z"/>
		<path fill-rule="evenodd" clip-rule="evenodd" fill="#334251" d="M0.522,7.896L0.33,7.963C0.236,7.691,0.16,7.41,0.106,7.128
			l0.2-0.041C0.359,7.361,0.43,7.631,0.522,7.896z"/>
		<path fill-rule="evenodd" clip-rule="evenodd" fill="#334251" d="M1.503,9.653l-0.16,0.126C1.162,9.556,0.998,9.32,0.848,9.071
			L1.024,8.97C1.166,9.208,1.327,9.436,1.503,9.653z"/>
		<path fill-rule="evenodd" clip-rule="evenodd" fill="#334251" d="M3.026,10.965l-0.104,0.179c-0.248-0.15-0.484-0.314-0.712-0.496
			l0.131-0.159C2.559,10.664,2.785,10.825,3.026,10.965z"/>
		<path fill-rule="evenodd" clip-rule="evenodd" fill="#334251" d="M4.906,11.685l-0.035,0.199
			c-0.285-0.055-0.564-0.131-0.838-0.225l0.067-0.191C4.365,11.56,4.635,11.629,4.906,11.685z"/>
		<path fill-rule="evenodd" clip-rule="evenodd" fill="#334251" d="M8.826,11.054l0.1,0.178c-0.254,0.141-0.516,0.261-0.785,0.365
			l-0.072-0.193C8.329,11.308,8.581,11.19,8.826,11.054z"/>
		<path fill-rule="evenodd" clip-rule="evenodd" fill="#334251" d="M10.385,9.784l0.156,0.131c-0.189,0.219-0.394,0.423-0.613,0.611
			l-0.133-0.152C10.006,10.191,10.203,9.995,10.385,9.784z"/>
		<path fill-rule="evenodd" clip-rule="evenodd" fill="#334251" d="M11.418,8.056l0.191,0.072c-0.104,0.271-0.225,0.533-0.365,0.784
			l-0.179-0.099C11.201,8.568,11.32,8.317,11.418,8.056z"/>
		<path fill-rule="evenodd" clip-rule="evenodd" fill="#334251" d="M11.797,6.08L12,6.084c-0.004,0.287-0.029,0.575-0.074,0.86
			L11.727,6.91C11.768,6.635,11.791,6.361,11.797,6.08z"/>
	</g>
	<path fill="#455A64" d="M5.999,10.327C3.61,10.327,1.666,8.386,1.666,6c0-2.387,1.944-4.328,4.333-4.328
		c2.388,0,4.335,1.941,4.335,4.328C10.334,8.386,8.387,10.327,5.999,10.327z M5.999,2.768c-1.785,0-3.235,1.45-3.235,3.232
		c0,1.781,1.45,3.23,3.235,3.23c1.783,0,3.235-1.449,3.235-3.23C9.234,4.218,7.782,2.768,5.999,2.768z"/>
</g>
</svg>
