<?xml version="1.0" encoding="utf-8"?>
<!-- Generator: Adobe Illustrator 15.0.0, SVG Export Plug-In . SVG Version: 6.00 Build 0)  -->
<!DOCTYPE svg PUBLIC "-//W3C//DTD SVG 1.1//EN" "http://www.w3.org/Graphics/SVG/1.1/DTD/svg11.dtd">
<svg version="1.1" id="Layer_3" xmlns="http://www.w3.org/2000/svg" xmlns:xlink="http://www.w3.org/1999/xlink" x="0px" y="0px"
	 width="40px" height="40px" viewBox="0 0 40 40" enable-background="new 0 0 40 40" xml:space="preserve">
<g>
	<path fill="#334250" d="M40,40H0V0h3v37h37V40z"/>
	<path fill="#334250" d="M27.368,3.916l-1.526,1.478l10.172,9.868l1.527-1.479L27.368,3.916z M9.66,21.082l4.072-0.006L25.841,9.342
		L23.805,7.37L9.66,21.082z M8.218,27.775l4.72,4.572l5.568-0.6l0.006-4.146l-5.382,0.006l0.004-5.189h-4.31L8.218,27.775z
		 M30.928,14.275l-4.074-3.949L14.52,22.299l-0.008,3.967l4.051-0.004L30.928,14.275z M33.979,17.232l-2.035-1.972l-12.06,11.69
		l-0.006,3.954L33.979,17.232z M34.992,16.25l0.511-0.495l-10.17-9.867L24.82,6.386L34.992,16.25z M38.553,14.77l-1.523,1.479
		l-0.088,0.083l-1.896,1.842l-0.051,0.047l-15.26,14.8L6,34.5l1.524-13.318l18.822-18.25c0.562-0.543,1.438-0.58,1.956-0.077
		l10.332,10.017C39.15,13.376,39.113,14.227,38.553,14.77z"/>
</g>
</svg>
