<?xml version="1.0" encoding="utf-8"?>
<!-- Generator: Adobe Illustrator 15.0.0, SVG Export Plug-In . SVG Version: 6.00 Build 0)  -->
<!DOCTYPE svg PUBLIC "-//W3C//DTD SVG 1.1//EN" "http://www.w3.org/Graphics/SVG/1.1/DTD/svg11.dtd">
<svg version="1.1" id="Layer_4" xmlns="http://www.w3.org/2000/svg" xmlns:xlink="http://www.w3.org/1999/xlink" x="0px" y="0px"
	 width="40px" height="40px" viewBox="0 0 40 40" enable-background="new 0 0 40 40" xml:space="preserve">
<g>
	<g opacity="0.73">
		<path opacity="0.92" fill="#455A64" d="M32,28.457C32,30.41,30.4,32,28.428,32H11.561C9.6,32,8,30.41,8,28.457V11.548
			c0-1.957,1.6-3.547,3.561-3.547h16.867C30.4,8.001,32,9.591,32,11.548V28.457z"/>
		<path opacity="0.43" fill="#455A64" d="M28.428,8H11.561C9.6,8,8,9.59,8,11.548v16.909C8,30.41,9.6,32,11.561,32h16.867
			C30.4,32,32,30.41,32,28.457V11.548C32,9.59,30.4,8,28.428,8z"/>
	</g>
	<g>
		<g opacity="0.38">
			<g>
				<path fill="#FEF6E2" d="M33.185,39H6.816C3.609,39,1,36.404,1,33.213V6.787C1,3.597,3.609,1,6.816,1h26.368
					C36.392,1,39,3.597,39,6.787v26.426C39,36.404,36.392,39,33.185,39z M6.816,1.999c-2.656,0-4.817,2.148-4.817,4.788v26.426
					c0,2.641,2.161,4.788,4.817,4.788h26.368c2.656,0,4.817-2.147,4.817-4.788V6.787c0-2.64-2.161-4.788-4.817-4.788H6.816z"/>
			</g>
			<g>
				<path fill="#FEF6E2" d="M33.185,39H6.816C3.609,39,1,36.404,1,33.213V6.787C1,3.597,3.609,1,6.816,1h26.368
					C36.392,1,39,3.597,39,6.787v26.426C39,36.404,36.392,39,33.185,39z M6.816,1.999c-2.656,0-4.817,2.148-4.817,4.788v26.426
					c0,2.641,2.161,4.788,4.817,4.788h26.368c2.656,0,4.817-2.147,4.817-4.788V6.787c0-2.64-2.161-4.788-4.817-4.788H6.816z"/>
			</g>
		</g>
		<path fill="#334251" d="M33.065,40H6.934C3.111,40,0,36.902,0,33.094V6.905C0,3.098,3.111,0,6.934,0h26.132
			C36.89,0,40,3.098,40,6.905v26.188C40,36.902,36.89,40,33.065,40z M6.934,0.976c-3.285,0-5.957,2.66-5.957,5.93v26.188
			c0,3.27,2.672,5.931,5.957,5.931h26.132c3.285,0,5.959-2.661,5.959-5.931V6.905c0-3.27-2.674-5.93-5.959-5.93H6.934z"/>
	</g>
	<g>
		<path fill="#EEE8D5" d="M11.893,13.893c-1.029,0-1.873-0.87-1.873-1.936c0-1.066,0.844-1.934,1.873-1.934
			c1.039,0,1.887,0.867,1.887,1.934C13.779,13.022,12.932,13.893,11.893,13.893z M11.893,11.004c-0.5,0-0.906,0.427-0.906,0.953
			c0,0.525,0.406,0.956,0.906,0.956c0.508,0,0.92-0.431,0.92-0.956C12.812,11.431,12.4,11.004,11.893,11.004z"/>
		<path fill="#EEE8D5" d="M28.312,30.328c-1.039,0-1.885-0.869-1.885-1.936c0-1.072,0.846-1.943,1.885-1.943
			c1.031,0,1.873,0.871,1.873,1.943C30.186,29.459,29.344,30.328,28.312,30.328z M28.312,27.43c-0.514,0-0.918,0.424-0.918,0.963
			c0,0.525,0.412,0.955,0.918,0.955c0.5,0,0.906-0.43,0.906-0.955C29.219,27.859,28.812,27.43,28.312,27.43z"/>
	</g>
	<g opacity="0.75">
		<polygon fill="#EEE8D5" points="17.749,30.328 18.119,29.958 17.749,29.588 11.352,29.588 10.981,29.958 11.352,30.328 		"/>
		<polygon fill="#EEE8D5" points="10.76,28.996 10.76,22.599 10.39,22.229 10.02,22.599 10.02,28.996 10.39,29.366 		"/>
	</g>
	<path fill="#EEE8D5" d="M36,12.908v-1.027h-2.941v-0.402c0-2.616-2.094-4.745-4.678-4.776V4h-1.012v2.697h-4.467V4h-1.018v2.697
		h-4.479V4h-1.018v2.697h-4.461V4h-1.02v2.765c-2.287,0.332-4.061,2.309-4.061,4.714v0.402H4v1.027h2.848v4.534H4v1.025h2.848v4.555
		H4v1.025h2.848v4.47c0,0.025,0.006,0.045,0.006,0.07H4v1.025h2.988c0.441,1.893,1.99,3.338,3.92,3.615V36h1.02v-2.701h4.461V36
		h1.018v-2.701h4.479V36h1.018v-2.701h4.467V36h1.012v-2.708c2.209-0.025,4.051-1.589,4.535-3.679H36v-1.025h-2.947
		c0-0.025,0.006-0.045,0.006-0.07v-4.47H36v-1.025h-2.941v-4.555H36v-1.025h-2.941v-4.534H36z M31.867,28.518
		c0,1.968-1.588,3.569-3.545,3.569H11.574c-1.947,0-3.535-1.602-3.535-3.569V11.479c0-1.972,1.588-3.573,3.535-3.573h16.748
		c1.957,0,3.545,1.602,3.545,3.573V28.518z"/>
</g>
</svg>
