<?xml version="1.0" encoding="utf-8"?>
<!-- Generator: Adobe Illustrator 15.0.0, SVG Export Plug-In . SVG Version: 6.00 Build 0)  -->
<!DOCTYPE svg PUBLIC "-//W3C//DTD SVG 1.1//EN" "http://www.w3.org/Graphics/SVG/1.1/DTD/svg11.dtd">
<svg version="1.1" xmlns="http://www.w3.org/2000/svg" xmlns:xlink="http://www.w3.org/1999/xlink" x="0px" y="0px" width="40px"
	 height="40px" viewBox="0 0 40 40" enable-background="new 0 0 40 40" xml:space="preserve">
<g id="Layer_4" display="none">
	<g display="inline">
		<g>
			<g opacity="0.38">
				<g>
					<path fill="#FEF6E2" d="M33.185,39H6.816C3.609,39,1,36.404,1,33.213V6.787C1,3.597,3.609,1,6.816,1h26.368
						C36.392,1,39,3.597,39,6.787v26.426C39,36.404,36.392,39,33.185,39z M6.816,1.999c-2.656,0-4.817,2.148-4.817,4.788v26.426
						c0,2.641,2.161,4.788,4.817,4.788h26.368c2.656,0,4.817-2.147,4.817-4.788V6.787c0-2.64-2.161-4.788-4.817-4.788H6.816z"/>
				</g>
				<g>
					<path fill="#FEF6E2" d="M33.185,39H6.816C3.609,39,1,36.404,1,33.213V6.787C1,3.597,3.609,1,6.816,1h26.368
						C36.392,1,39,3.597,39,6.787v26.426C39,36.404,36.392,39,33.185,39z M6.816,1.999c-2.656,0-4.817,2.148-4.817,4.788v26.426
						c0,2.641,2.161,4.788,4.817,4.788h26.368c2.656,0,4.817-2.147,4.817-4.788V6.787c0-2.64-2.161-4.788-4.817-4.788H6.816z"/>
				</g>
			</g>
			<path fill="#334251" d="M33.065,40H6.934C3.111,40,0,36.902,0,33.094V6.905C0,3.098,3.111,0,6.934,0h26.132
				C36.89,0,40,3.098,40,6.905v26.188C40,36.902,36.89,40,33.065,40z M6.934,0.976c-3.285,0-5.957,2.66-5.957,5.93v26.188
				c0,3.27,2.672,5.931,5.957,5.931h26.132c3.285,0,5.959-2.661,5.959-5.931V6.905c0-3.27-2.674-5.93-5.959-5.93H6.934z"/>
		</g>
		<path opacity="0.8" fill="#73787D" d="M32,28.457C32,30.41,30.4,32,28.428,32H11.561C9.6,32,8,30.41,8,28.457v-16.91
			C8,9.59,9.6,8,11.561,8h16.867C30.4,8,32,9.59,32,11.547V28.457z"/>
		<path fill="#FEF6E2" d="M36,12.908v-1.027h-2.941v-0.402c0-2.616-2.094-4.745-4.678-4.776V4h-1.012v2.697h-4.467V4h-1.018v2.697
			h-4.479V4h-1.018v2.697h-4.461V4h-1.02v2.765c-2.287,0.332-4.061,2.309-4.061,4.714v0.402H4v1.027h2.848v4.534H4v1.025h2.848
			v4.555H4v1.025h2.848v4.47c0,0.025,0.006,0.045,0.006,0.07H4v1.025h2.988c0.441,1.893,1.99,3.338,3.92,3.615V36h1.02v-2.701h4.461
			V36h1.018v-2.701h4.479V36h1.018v-2.701h4.467V36h1.012v-2.708c2.209-0.025,4.051-1.589,4.535-3.679H36v-1.025h-2.947
			c0-0.025,0.006-0.045,0.006-0.07v-4.47H36v-1.025h-2.941v-4.555H36v-1.025h-2.941v-4.534H36z M31.867,28.518
			c0,1.968-1.588,3.569-3.545,3.569H11.574c-1.947,0-3.535-1.602-3.535-3.569V11.479c0-1.972,1.588-3.573,3.535-3.573h16.748
			c1.957,0,3.545,1.602,3.545,3.573V28.518z"/>
		<g>
			<path fill="#FEF6E2" d="M11.527,13.942c-1.029,0-1.873-0.87-1.873-1.936c0-1.066,0.844-1.934,1.873-1.934
				c1.039,0,1.887,0.867,1.887,1.934C13.414,13.072,12.566,13.942,11.527,13.942z M11.527,11.054c-0.5,0-0.906,0.427-0.906,0.953
				c0,0.525,0.406,0.956,0.906,0.956c0.508,0,0.92-0.431,0.92-0.956C12.447,11.48,12.035,11.054,11.527,11.054z"/>
			<path fill="#FEF6E2" d="M27.947,30.377c-1.039,0-1.885-0.869-1.885-1.934c0-1.072,0.846-1.943,1.885-1.943
				c1.031,0,1.873,0.871,1.873,1.943C29.82,29.508,28.979,30.377,27.947,30.377z M27.947,27.48c-0.514,0-0.918,0.422-0.918,0.963
				c0,0.525,0.412,0.953,0.918,0.953c0.5,0,0.906-0.428,0.906-0.953C28.854,27.91,28.447,27.48,27.947,27.48z"/>
		</g>
		<g>
			<polygon fill="#FEF6E2" points="17.384,30.377 17.754,30.008 17.384,29.638 10.986,29.638 10.616,30.008 10.986,30.377 			"/>
			<polygon fill="#FEF6E2" points="10.395,29.047 10.395,22.648 10.024,22.279 9.654,22.648 9.654,29.047 10.024,29.416 			"/>
		</g>
	</g>
</g>
<g id="Layer_7" display="none">
	<g display="inline">
		<g>
			<g opacity="0.38">
				<g>
					<path fill="#FEF6E2" d="M33.185,39H6.816C3.609,39,1,36.404,1,33.213V6.787C1,3.597,3.609,1,6.816,1h26.368
						C36.392,1,39,3.597,39,6.787v26.426C39,36.404,36.392,39,33.185,39z M6.816,1.999c-2.656,0-4.817,2.148-4.817,4.788v26.426
						c0,2.641,2.161,4.788,4.817,4.788h26.368c2.656,0,4.817-2.147,4.817-4.788V6.787c0-2.64-2.161-4.788-4.817-4.788H6.816z"/>
				</g>
				<g>
					<path fill="#FEF6E2" d="M33.185,39H6.816C3.609,39,1,36.404,1,33.213V6.787C1,3.597,3.609,1,6.816,1h26.368
						C36.392,1,39,3.597,39,6.787v26.426C39,36.404,36.392,39,33.185,39z M6.816,1.999c-2.656,0-4.817,2.148-4.817,4.788v26.426
						c0,2.641,2.161,4.788,4.817,4.788h26.368c2.656,0,4.817-2.147,4.817-4.788V6.787c0-2.64-2.161-4.788-4.817-4.788H6.816z"/>
				</g>
			</g>
			<path fill="#334251" d="M33.065,40H6.934C3.111,40,0,36.902,0,33.094V6.905C0,3.098,3.111,0,6.934,0h26.132
				C36.89,0,40,3.098,40,6.905v26.188C40,36.902,36.89,40,33.065,40z M6.934,0.976c-3.285,0-5.957,2.66-5.957,5.93v26.188
				c0,3.27,2.672,5.931,5.957,5.931h26.132c3.285,0,5.959-2.661,5.959-5.931V6.905c0-3.27-2.674-5.93-5.959-5.93H6.934z"/>
		</g>
		<g>
			<g>
				<path opacity="0.8" fill="#73787D" d="M32,28.457C32,30.41,30.4,32,28.428,32H11.561C9.6,32,8,30.41,8,28.457v-16.91
					C8,9.59,9.6,8,11.561,8h16.867C30.4,8,32,9.59,32,11.547V28.457z"/>
				<g>
					<linearGradient id="SVGID_1_" gradientUnits="userSpaceOnUse" x1="8" y1="20" x2="32" y2="20">
						<stop  offset="0" style="stop-color:#89A3B1"/>
						<stop  offset="0.5393" style="stop-color:#507282"/>
						<stop  offset="1" style="stop-color:#1E4554"/>
					</linearGradient>
					<path opacity="0.56" fill="url(#SVGID_1_)" d="M32,28.457C32,30.41,30.4,32,28.428,32H11.561C9.6,32,8,30.41,8,28.457v-16.91
						C8,9.59,9.6,8,11.561,8h16.867C30.4,8,32,9.59,32,11.547V28.457z"/>
				</g>
			</g>
			<g>
				<path opacity="0.65" fill="#FEF6E2" d="M36,12.908v-1.027h-2.941v-0.402c0-2.616-2.094-4.745-4.678-4.776V4h-1.012v2.697h-4.467
					V4h-1.018v2.697h-4.479V4h-1.018v2.697h-4.461V4h-1.02v2.765c-2.287,0.332-4.061,2.309-4.061,4.714v0.402H4v1.027h2.848v4.534H4
					v1.025h2.848v4.555H4v1.025h2.848v4.47c0,0.025,0.006,0.045,0.006,0.07H4v1.025h2.988c0.441,1.893,1.99,3.338,3.92,3.615V36
					h1.02v-2.701h4.461V36h1.018v-2.701h4.479V36h1.018v-2.701h4.467V36h1.012v-2.708c2.209-0.025,4.051-1.589,4.535-3.679H36
					v-1.025h-2.947c0-0.025,0.006-0.045,0.006-0.07v-4.47H36v-1.025h-2.941v-4.555H36v-1.025h-2.941v-4.534H36z M31.867,28.518
					c0,1.968-1.588,3.569-3.545,3.569H11.574c-1.947,0-3.535-1.602-3.535-3.569V11.479c0-1.972,1.588-3.573,3.535-3.573h16.748
					c1.957,0,3.545,1.602,3.545,3.573V28.518z"/>
				<g opacity="0.65">
					<path fill="#FEF6E2" d="M11.527,13.942c-1.029,0-1.873-0.87-1.873-1.936c0-1.066,0.844-1.934,1.873-1.934
						c1.039,0,1.887,0.867,1.887,1.934C13.414,13.072,12.566,13.942,11.527,13.942z M11.527,11.054c-0.5,0-0.906,0.427-0.906,0.953
						c0,0.525,0.406,0.956,0.906,0.956c0.508,0,0.92-0.431,0.92-0.956C12.447,11.48,12.035,11.054,11.527,11.054z"/>
					<path fill="#FEF6E2" d="M27.947,30.377c-1.039,0-1.885-0.869-1.885-1.934c0-1.072,0.846-1.943,1.885-1.943
						c1.031,0,1.873,0.871,1.873,1.943C29.82,29.508,28.979,30.377,27.947,30.377z M27.947,27.48c-0.514,0-0.918,0.422-0.918,0.963
						c0,0.525,0.412,0.953,0.918,0.953c0.5,0,0.906-0.428,0.906-0.953C28.854,27.91,28.447,27.48,27.947,27.48z"/>
				</g>
				<g opacity="0.65">
					<polygon fill="#FEF6E2" points="17.384,30.377 17.754,30.008 17.384,29.638 10.986,29.638 10.616,30.008 10.986,30.377 					
						"/>
					<polygon fill="#FEF6E2" points="10.395,29.047 10.395,22.648 10.024,22.279 9.654,22.648 9.654,29.047 10.024,29.416 					"/>
				</g>
			</g>
		</g>
	</g>
</g>
<g id="Layer_5" display="none">
	<g display="inline">
		<g>
			<g opacity="0.38">
				<g>
					<path fill="#FEF6E2" d="M33.185,39H6.816C3.609,39,1,36.404,1,33.213V6.787C1,3.597,3.609,1,6.816,1h26.368
						C36.392,1,39,3.597,39,6.787v26.426C39,36.404,36.392,39,33.185,39z M6.816,1.999c-2.656,0-4.817,2.148-4.817,4.788v26.426
						c0,2.641,2.161,4.788,4.817,4.788h26.368c2.656,0,4.817-2.147,4.817-4.788V6.787c0-2.64-2.161-4.788-4.817-4.788H6.816z"/>
				</g>
				<g>
					<path fill="#FEF6E2" d="M33.185,39H6.816C3.609,39,1,36.404,1,33.213V6.787C1,3.597,3.609,1,6.816,1h26.368
						C36.392,1,39,3.597,39,6.787v26.426C39,36.404,36.392,39,33.185,39z M6.816,1.999c-2.656,0-4.817,2.148-4.817,4.788v26.426
						c0,2.641,2.161,4.788,4.817,4.788h26.368c2.656,0,4.817-2.147,4.817-4.788V6.787c0-2.64-2.161-4.788-4.817-4.788H6.816z"/>
				</g>
			</g>
			<path fill="#334251" d="M33.065,40H6.934C3.111,40,0,36.902,0,33.094V6.905C0,3.098,3.111,0,6.934,0h26.132
				C36.89,0,40,3.098,40,6.905v26.188C40,36.902,36.89,40,33.065,40z M6.934,0.976c-3.285,0-5.957,2.66-5.957,5.93v26.188
				c0,3.27,2.672,5.931,5.957,5.931h26.132c3.285,0,5.959-2.661,5.959-5.931V6.905c0-3.27-2.674-5.93-5.959-5.93H6.934z"/>
		</g>
		<g>
			<path opacity="0.8" fill="#73787D" d="M32,28.457C32,30.41,30.4,32,28.428,32H11.561C9.6,32,8,30.41,8,28.457v-16.91
				C8,9.59,9.6,8,11.561,8h16.867C30.4,8,32,9.59,32,11.547V28.457z"/>
			<g>
				<linearGradient id="SVGID_2_" gradientUnits="userSpaceOnUse" x1="8" y1="20" x2="32" y2="20">
					<stop  offset="0" style="stop-color:#89A3B1"/>
					<stop  offset="0.5393" style="stop-color:#507282"/>
					<stop  offset="1" style="stop-color:#1E4554"/>
				</linearGradient>
				<path opacity="0.56" fill="url(#SVGID_2_)" d="M32,28.457C32,30.41,30.4,32,28.428,32H11.561C9.6,32,8,30.41,8,28.457v-16.91
					C8,9.59,9.6,8,11.561,8h16.867C30.4,8,32,9.59,32,11.547V28.457z"/>
			</g>
		</g>
		<path opacity="0.65" fill="#FEF6E2" d="M36,12.908v-1.027h-2.941v-0.402c0-2.616-2.094-4.745-4.678-4.776V4h-1.012v2.697h-4.467V4
			h-1.018v2.697h-4.479V4h-1.018v2.697h-4.461V4h-1.02v2.765c-2.287,0.332-4.061,2.309-4.061,4.714v0.402H4v1.027h2.848v4.534H4
			v1.025h2.848v4.555H4v1.025h2.848v4.47c0,0.025,0.006,0.045,0.006,0.07H4v1.025h2.988c0.441,1.893,1.99,3.338,3.92,3.615V36h1.02
			v-2.701h4.461V36h1.018v-2.701h4.479V36h1.018v-2.701h4.467V36h1.012v-2.708c2.209-0.025,4.051-1.589,4.535-3.679H36v-1.025
			h-2.947c0-0.025,0.006-0.045,0.006-0.07v-4.47H36v-1.025h-2.941v-4.555H36v-1.025h-2.941v-4.534H36z M31.867,28.518
			c0,1.968-1.588,3.569-3.545,3.569H11.574c-1.947,0-3.535-1.602-3.535-3.569V11.479c0-1.972,1.588-3.573,3.535-3.573h16.748
			c1.957,0,3.545,1.602,3.545,3.573V28.518z"/>
		<g opacity="0.65">
			<path fill="#FEF6E2" d="M11.527,13.942c-1.029,0-1.873-0.87-1.873-1.936c0-1.066,0.844-1.934,1.873-1.934
				c1.039,0,1.887,0.867,1.887,1.934C13.414,13.072,12.566,13.942,11.527,13.942z M11.527,11.054c-0.5,0-0.906,0.427-0.906,0.953
				c0,0.525,0.406,0.956,0.906,0.956c0.508,0,0.92-0.431,0.92-0.956C12.447,11.48,12.035,11.054,11.527,11.054z"/>
			<path fill="#FEF6E2" d="M27.947,30.377c-1.039,0-1.885-0.869-1.885-1.934c0-1.072,0.846-1.943,1.885-1.943
				c1.031,0,1.873,0.871,1.873,1.943C29.82,29.508,28.979,30.377,27.947,30.377z M27.947,27.48c-0.514,0-0.918,0.422-0.918,0.963
				c0,0.525,0.412,0.953,0.918,0.953c0.5,0,0.906-0.428,0.906-0.953C28.854,27.91,28.447,27.48,27.947,27.48z"/>
		</g>
	</g>
</g>
<g id="Layer_6">
	<g>
		<g>
			<g opacity="0.38">
				<g>
					<path fill="#FEF6E2" d="M33.185,39H6.816C3.609,39,1,36.404,1,33.213V6.787C1,3.597,3.609,1,6.816,1h26.368
						C36.392,1,39,3.597,39,6.787v26.426C39,36.404,36.392,39,33.185,39z M6.816,1.999c-2.656,0-4.817,2.148-4.817,4.788v26.426
						c0,2.641,2.161,4.789,4.817,4.789h26.368c2.656,0,4.817-2.148,4.817-4.789V6.787c0-2.64-2.161-4.788-4.817-4.788H6.816z"/>
				</g>
				<g>
					<path fill="#FEF6E2" d="M33.185,39H6.816C3.609,39,1,36.404,1,33.213V6.787C1,3.597,3.609,1,6.816,1h26.368
						C36.392,1,39,3.597,39,6.787v26.426C39,36.404,36.392,39,33.185,39z M6.816,1.999c-2.656,0-4.817,2.148-4.817,4.788v26.426
						c0,2.641,2.161,4.789,4.817,4.789h26.368c2.656,0,4.817-2.148,4.817-4.789V6.787c0-2.64-2.161-4.788-4.817-4.788H6.816z"/>
				</g>
			</g>
			<path fill="#334251" d="M33.065,40H6.934C3.111,40,0,36.902,0,33.094V6.905C0,3.098,3.111,0,6.934,0h26.132
				C36.89,0,40,3.098,40,6.905v26.188C40,36.902,36.89,40,33.065,40z M6.934,0.976c-3.285,0-5.957,2.66-5.957,5.93v26.188
				c0,3.27,2.672,5.932,5.957,5.932h26.132c3.285,0,5.959-2.662,5.959-5.932V6.905c0-3.27-2.674-5.93-5.959-5.93H6.934z"/>
		</g>
		<path opacity="0.8" fill="#73787D" d="M32,28.459C32,30.41,30.4,32,28.428,32H11.561C9.6,32,8,30.41,8,28.459V11.548
			C8,9.59,9.6,8,11.561,8h16.867C30.4,8,32,9.59,32,11.548V28.459z"/>
		<path fill="#334251" d="M36,12.908v-1.027h-2.941v-0.402c0-2.616-2.094-4.745-4.678-4.776V4h-1.012v2.697h-4.467V4h-1.018v2.697
			h-4.479V4h-1.018v2.697h-4.461V4h-1.02v2.765c-2.287,0.332-4.061,2.309-4.061,4.714v0.402H4v1.027h2.848v4.534H4v1.025h2.848
			v4.556H4v1.025h2.848v4.469c0,0.025,0.006,0.045,0.006,0.07H4v1.025h2.988c0.441,1.893,1.99,3.338,3.92,3.615V36h1.02v-2.701
			h4.461V36h1.018v-2.701h4.479V36h1.018v-2.701h4.467V36h1.012v-2.707c2.209-0.025,4.051-1.59,4.535-3.68H36v-1.025h-2.947
			c0-0.025,0.006-0.045,0.006-0.07v-4.469H36v-1.025h-2.941v-4.556H36v-1.025h-2.941v-4.534H36z M31.867,28.518
			c0,1.969-1.588,3.57-3.545,3.57H11.574c-1.947,0-3.535-1.602-3.535-3.57V11.479c0-1.972,1.588-3.573,3.535-3.573h16.748
			c1.957,0,3.545,1.602,3.545,3.573V28.518z"/>
		<g>
			<path fill="#334251" d="M11.527,13.942c-1.029,0-1.873-0.87-1.873-1.936c0-1.066,0.844-1.934,1.873-1.934
				c1.039,0,1.887,0.867,1.887,1.934C13.414,13.072,12.566,13.942,11.527,13.942z M11.527,11.054c-0.5,0-0.906,0.427-0.906,0.953
				c0,0.525,0.406,0.956,0.906,0.956c0.508,0,0.92-0.431,0.92-0.956C12.447,11.48,12.035,11.054,11.527,11.054z"/>
			<path fill="#334251" d="M27.947,30.379c-1.039,0-1.885-0.869-1.885-1.936c0-1.072,0.846-1.943,1.885-1.943
				c1.031,0,1.873,0.871,1.873,1.943C29.82,29.51,28.979,30.379,27.947,30.379z M27.947,27.48c-0.514,0-0.918,0.424-0.918,0.963
				c0,0.525,0.412,0.955,0.918,0.955c0.5,0,0.906-0.43,0.906-0.955C28.854,27.91,28.447,27.48,27.947,27.48z"/>
		</g>
	</g>
</g>
</svg>
