<?xml version="1.0" encoding="utf-8"?>
<!-- Generator: Adobe Illustrator 15.0.0, SVG Export Plug-In . SVG Version: 6.00 Build 0)  -->
<!DOCTYPE svg PUBLIC "-//W3C//DTD SVG 1.1//EN" "http://www.w3.org/Graphics/SVG/1.1/DTD/svg11.dtd">
<svg version="1.1" id="Layer_1" xmlns="http://www.w3.org/2000/svg" xmlns:xlink="http://www.w3.org/1999/xlink" x="0px" y="0px"
	 width="12px" height="14px" viewBox="0 0 12 14" enable-background="new 0 0 12 14" xml:space="preserve">
<g opacity="0.8">
	<path fill="#455A64" d="M7.136,1.588v-0.81C7.136,0.347,6.772,0,6.325,0H5.921c-0.448,0-0.81,0.347-0.81,0.778v0.81H0v0.776h12
		V1.588H7.136z"/>
	<path fill="#455A64" d="M0.834,2.852v10.154c0,0.55,0.465,0.994,1.033,0.994h8.261c0.57,0,1.032-0.444,1.032-0.994V2.852H0.834z
		 M10.351,13.006c0,0.121-0.098,0.216-0.223,0.216H1.867c-0.123,0-0.223-0.095-0.223-0.216V3.627h8.706V13.006z"/>
	<rect x="3.101" y="5.096" fill="#455A64" width="0.81" height="6.659"/>
	<rect x="5.595" y="5.096" fill="#455A64" width="0.811" height="6.659"/>
	<rect x="8.086" y="5.096" fill="#455A64" width="0.811" height="6.659"/>
</g>
</svg>
