<?xml version="1.0" encoding="utf-8"?>
<!-- Generator: Adobe Illustrator 15.0.0, SVG Export Plug-In . SVG Version: 6.00 Build 0)  -->
<!DOCTYPE svg PUBLIC "-//W3C//DTD SVG 1.1//EN" "http://www.w3.org/Graphics/SVG/1.1/DTD/svg11.dtd">
<svg version="1.1" id="Layer_1" xmlns="http://www.w3.org/2000/svg" xmlns:xlink="http://www.w3.org/1999/xlink" x="0px" y="0px"
	 width="6px" height="6px" viewBox="0 0 6 6" enable-background="new 0 0 6 6" xml:space="preserve">
<g>
	<g opacity="0.66">
		<path fill-rule="evenodd" clip-rule="evenodd" fill="#657383" d="M5.057,0.947C3.923-0.186,2.078-0.186,0.945,0.945
			c-1.132,1.135-1.132,2.975,0,4.109c1.133,1.131,2.978,1.131,4.111,0C6.187,3.92,6.187,2.08,5.057,0.947"/>
		<path fill="#333333" d="M3,6C2.197,6,1.443,5.688,0.877,5.123c-1.169-1.172-1.169-3.074,0-4.246C1.443,0.312,2.197,0,3,0
			c0.804,0,1.559,0.312,2.125,0.877c1.167,1.172,1.167,3.074,0,4.246C4.559,5.688,3.804,6,3,6z M3,0.193
			c-0.752,0-1.456,0.291-1.986,0.82c-1.093,1.096-1.093,2.877,0,3.973C1.544,5.516,2.249,5.807,3,5.807
			c0.752,0,1.458-0.291,1.988-0.82c1.091-1.096,1.091-2.877,0-3.971C4.458,0.486,3.752,0.193,3,0.193z"/>
	</g>
	<g>
		<polygon fill-rule="evenodd" clip-rule="evenodd" fill="#000033" points="4.272,1.549 3.001,2.82 1.819,1.641 1.641,1.82 
			2.818,3.002 1.549,4.271 1.729,4.451 3.001,3.184 4.272,4.451 4.453,4.271 3.183,3.002 4.453,1.732 		"/>
	</g>
</g>
</svg>
